<svg width="217" height="57" viewBox="0 0 217 57" fill="none" xmlns="http://www.w3.org/2000/svg">
<rect x="1" y="1.11426" width="215.5" height="55" rx="11.5" stroke="#EEEFF2"/>
<path d="M88.6244 24.1182C88.5153 24.1794 85.9172 25.4727 85.9172 28.3401C86.0397 31.6101 89.1959 32.7569 89.25 32.7569C89.1959 32.8182 88.7735 34.3191 87.5224 35.8925C86.5295 37.2478 85.4275 38.6143 83.754 38.6143C82.1621 38.6143 81.5907 37.711 79.754 37.711C77.7815 37.711 77.2234 38.6143 75.7131 38.6143C74.0397 38.6143 72.856 37.1746 71.809 35.832C70.4487 34.0748 69.2925 31.3173 69.2517 28.6695C69.2242 27.2665 69.5241 25.8873 70.2854 24.7158C71.36 23.0804 73.2784 21.9702 75.3733 21.9336C76.9785 21.8851 78.407 22.922 79.3866 22.922C80.3254 22.922 82.0805 21.9336 84.0663 21.9336C84.9235 21.9344 87.2092 22.166 88.6244 24.1182ZM79.2509 21.6535C78.9651 20.3722 79.754 19.0909 80.4887 18.2736C81.4274 17.2851 82.9101 16.6143 84.1888 16.6143C84.2704 17.8955 83.7531 19.1522 82.8285 20.0674C81.9989 21.0558 80.5703 21.7999 79.2509 21.6535Z" fill="#111827"/>
<path d="M105.901 34.6143L110.445 23.5103H111.533L116.061 34.6143H114.429L110.701 25.2223H111.261L107.501 34.6143H105.901ZM108.061 32.1023V30.7903H113.901V32.1023H108.061ZM121.801 34.7743C121.225 34.7743 120.703 34.6569 120.233 34.4223C119.775 34.1769 119.407 33.8409 119.129 33.4143C118.852 32.9876 118.697 32.5023 118.665 31.9583V29.6703C118.697 29.1156 118.852 28.6303 119.129 28.2143C119.417 27.7876 119.791 27.4569 120.249 27.2223C120.719 26.9769 121.236 26.8543 121.801 26.8543C122.495 26.8543 123.119 27.0303 123.673 27.3823C124.239 27.7343 124.681 28.2089 125.001 28.8063C125.321 29.4036 125.481 30.0756 125.481 30.8223C125.481 31.5689 125.321 32.2409 125.001 32.8383C124.681 33.4356 124.239 33.9103 123.673 34.2623C123.119 34.6036 122.495 34.7743 121.801 34.7743ZM117.801 37.7983V27.0143H119.241V29.0143L118.969 30.8543L119.241 32.7103V37.7983H117.801ZM121.561 33.4143C122.041 33.4143 122.463 33.3023 122.825 33.0783C123.188 32.8543 123.476 32.5503 123.689 32.1663C123.903 31.7716 124.009 31.3183 124.009 30.8063C124.009 30.3049 123.903 29.8569 123.689 29.4623C123.476 29.0676 123.188 28.7636 122.825 28.5503C122.463 28.3263 122.047 28.2143 121.577 28.2143C121.097 28.2143 120.676 28.3263 120.313 28.5503C119.951 28.7636 119.668 29.0676 119.465 29.4623C119.263 29.8569 119.161 30.3103 119.161 30.8223C119.161 31.3236 119.257 31.7716 119.449 32.1663C119.652 32.5503 119.935 32.8543 120.297 33.0783C120.671 33.3023 121.092 33.4143 121.561 33.4143ZM131.314 34.7743C130.738 34.7743 130.215 34.6569 129.746 34.4223C129.287 34.1769 128.919 33.8409 128.642 33.4143C128.364 32.9876 128.21 32.5023 128.178 31.9583V29.6703C128.21 29.1156 128.364 28.6303 128.642 28.2143C128.93 27.7876 129.303 27.4569 129.762 27.2223C130.231 26.9769 130.748 26.8543 131.314 26.8543C132.007 26.8543 132.631 27.0303 133.186 27.3823C133.751 27.7343 134.194 28.2089 134.514 28.8063C134.834 29.4036 134.994 30.0756 134.994 30.8223C134.994 31.5689 134.834 32.2409 134.514 32.8383C134.194 33.4356 133.751 33.9103 133.186 34.2623C132.631 34.6036 132.007 34.7743 131.314 34.7743ZM127.314 37.7983V27.0143H128.754V29.0143L128.482 30.8543L128.754 32.7103V37.7983H127.314ZM131.074 33.4143C131.554 33.4143 131.975 33.3023 132.338 33.0783C132.7 32.8543 132.988 32.5503 133.202 32.1663C133.415 31.7716 133.522 31.3183 133.522 30.8063C133.522 30.3049 133.415 29.8569 133.202 29.4623C132.988 29.0676 132.7 28.7636 132.338 28.5503C131.975 28.3263 131.559 28.2143 131.09 28.2143C130.61 28.2143 130.188 28.3263 129.826 28.5503C129.463 28.7636 129.18 29.0676 128.978 29.4623C128.775 29.8569 128.674 30.3103 128.674 30.8223C128.674 31.3236 128.77 31.7716 128.962 32.1663C129.164 32.5503 129.447 32.8543 129.81 33.0783C130.183 33.3023 130.604 33.4143 131.074 33.4143ZM136.826 34.6143V23.1903H138.266V34.6143H136.826ZM144.093 34.7743C143.336 34.7743 142.653 34.6036 142.045 34.2623C141.437 33.9103 140.957 33.4356 140.605 32.8383C140.253 32.2409 140.077 31.5636 140.077 30.8063C140.077 30.0596 140.248 29.3876 140.589 28.7903C140.941 28.1929 141.411 27.7236 141.997 27.3823C142.595 27.0303 143.261 26.8543 143.997 26.8543C144.701 26.8543 145.32 27.0143 145.853 27.3343C146.397 27.6543 146.819 28.0969 147.117 28.6623C147.427 29.2276 147.581 29.8676 147.581 30.5823C147.581 30.6889 147.576 30.8063 147.565 30.9343C147.555 31.0516 147.533 31.1903 147.501 31.3503H141.085V30.1503H146.733L146.205 30.6143C146.205 30.1023 146.115 29.6703 145.933 29.3183C145.752 28.9556 145.496 28.6783 145.165 28.4863C144.835 28.2836 144.435 28.1823 143.965 28.1823C143.475 28.1823 143.043 28.2889 142.669 28.5023C142.296 28.7156 142.008 29.0143 141.805 29.3983C141.603 29.7823 141.501 30.2356 141.501 30.7583C141.501 31.2916 141.608 31.7609 141.821 32.1663C142.035 32.5609 142.339 32.8703 142.733 33.0943C143.128 33.3076 143.581 33.4143 144.093 33.4143C144.52 33.4143 144.909 33.3396 145.261 33.1903C145.624 33.0409 145.933 32.8169 146.189 32.5183L147.117 33.4623C146.755 33.8889 146.307 34.2143 145.773 34.4383C145.251 34.6623 144.691 34.7743 144.093 34.7743Z" fill="#111827"/>
</svg>
