<svg width="217" height="57" viewBox="0 0 217 57" fill="none" xmlns="http://www.w3.org/2000/svg">
<rect x="0.5" y="1.11426" width="215.5" height="55" rx="11.5" stroke="#EEEFF2"/>
<path d="M85.3759 28.8281C85.3759 28.0367 85.3104 27.4592 85.1686 26.8604H75.9474V30.4323H81.36C81.251 31.3199 80.6617 32.6567 79.3521 33.555L79.3338 33.6746L82.2493 35.8881L82.4513 35.9078C84.3065 34.2288 85.3759 31.7584 85.3759 28.8281Z" fill="#4285F4"/>
<path d="M75.9468 38.2393C78.5985 38.2393 80.8247 37.3837 82.4507 35.9079L79.3515 33.555C78.5222 34.1218 77.409 34.5175 75.9468 34.5175C73.3496 34.5175 71.1452 32.8385 70.3595 30.5178L70.2443 30.5274L67.2126 32.8267L67.173 32.9348C68.788 36.0789 72.1055 38.2393 75.9468 38.2393Z" fill="#DEE33E"/>
<path d="M70.3601 30.5179C70.1527 29.919 70.0327 29.2773 70.0327 28.6142C70.0327 27.9511 70.1527 27.3095 70.3491 26.7106L70.3437 26.5831L67.274 24.2468L67.1736 24.2936C66.5079 25.5984 66.126 27.0635 66.126 28.6142C66.126 30.1649 66.5079 31.63 67.1736 32.9348L70.3601 30.5179Z" fill="#FDCF24"/>
<path d="M75.9468 22.7109C77.791 22.7109 79.0351 23.4916 79.7444 24.144L82.5162 21.4918C80.8139 19.9411 78.5986 18.9893 75.9468 18.9893C72.1055 18.9893 68.788 21.1495 67.173 24.2937L70.3486 26.7106C71.1453 24.3899 73.3496 22.7109 75.9468 22.7109Z" fill="#EB4335"/>
<path d="M105.141 34.7743C104.362 34.7743 103.631 34.6303 102.949 34.3423C102.277 34.0436 101.685 33.6329 101.173 33.1103C100.671 32.5876 100.277 31.9796 99.9887 31.2863C99.7007 30.5929 99.5567 29.8463 99.5567 29.0463C99.5567 28.2463 99.7007 27.5049 99.9887 26.8223C100.277 26.1289 100.677 25.5209 101.189 24.9983C101.701 24.4756 102.298 24.0703 102.981 23.7823C103.674 23.4943 104.426 23.3503 105.237 23.3503C106.122 23.3503 106.938 23.5209 107.685 23.8623C108.431 24.2036 109.055 24.6943 109.557 25.3343L108.517 26.3743C108.165 25.8623 107.701 25.4729 107.125 25.2063C106.549 24.9289 105.919 24.7903 105.237 24.7903C104.426 24.7903 103.706 24.9716 103.077 25.3343C102.458 25.6969 101.973 26.1983 101.621 26.8383C101.279 27.4783 101.109 28.2143 101.109 29.0463C101.109 29.8889 101.285 30.6303 101.637 31.2703C101.989 31.9103 102.463 32.4116 103.061 32.7743C103.658 33.1369 104.341 33.3183 105.109 33.3183C105.887 33.3183 106.559 33.1689 107.125 32.8703C107.701 32.5716 108.143 32.1343 108.453 31.5583C108.762 30.9716 108.917 30.2569 108.917 29.4143L109.829 30.0703H105.029V28.6943H110.469V28.9183C110.469 30.2089 110.239 31.2916 109.781 32.1663C109.333 33.0303 108.703 33.6809 107.893 34.1183C107.093 34.5556 106.175 34.7743 105.141 34.7743ZM115.908 34.7743C115.161 34.7743 114.489 34.5983 113.892 34.2463C113.294 33.8943 112.82 33.4196 112.468 32.8223C112.116 32.2143 111.94 31.5369 111.94 30.7903C111.94 30.0543 112.116 29.3929 112.468 28.8063C112.82 28.2089 113.294 27.7343 113.892 27.3823C114.489 27.0303 115.161 26.8543 115.908 26.8543C116.644 26.8543 117.31 27.0303 117.908 27.3823C118.516 27.7236 118.996 28.1929 119.348 28.7903C119.7 29.3876 119.876 30.0543 119.876 30.7903C119.876 31.5369 119.7 32.2143 119.348 32.8223C118.996 33.4196 118.516 33.8943 117.908 34.2463C117.31 34.5983 116.644 34.7743 115.908 34.7743ZM115.908 33.3823C116.388 33.3823 116.814 33.2703 117.188 33.0463C117.561 32.8223 117.854 32.5183 118.068 32.1343C118.281 31.7396 118.388 31.2916 118.388 30.7903C118.388 30.2996 118.276 29.8623 118.052 29.4783C117.838 29.0943 117.545 28.7956 117.172 28.5823C116.809 28.3583 116.388 28.2463 115.908 28.2463C115.428 28.2463 115.001 28.3583 114.628 28.5823C114.254 28.7956 113.961 29.0943 113.748 29.4783C113.534 29.8623 113.428 30.2996 113.428 30.7903C113.428 31.2916 113.534 31.7396 113.748 32.1343C113.961 32.5183 114.254 32.8223 114.628 33.0463C115.001 33.2703 115.428 33.3823 115.908 33.3823ZM125.17 34.7743C124.424 34.7743 123.752 34.5983 123.154 34.2463C122.557 33.8943 122.082 33.4196 121.73 32.8223C121.378 32.2143 121.202 31.5369 121.202 30.7903C121.202 30.0543 121.378 29.3929 121.73 28.8063C122.082 28.2089 122.557 27.7343 123.154 27.3823C123.752 27.0303 124.424 26.8543 125.17 26.8543C125.906 26.8543 126.573 27.0303 127.17 27.3823C127.778 27.7236 128.258 28.1929 128.61 28.7903C128.962 29.3876 129.138 30.0543 129.138 30.7903C129.138 31.5369 128.962 32.2143 128.61 32.8223C128.258 33.4196 127.778 33.8943 127.17 34.2463C126.573 34.5983 125.906 34.7743 125.17 34.7743ZM125.17 33.3823C125.65 33.3823 126.077 33.2703 126.45 33.0463C126.824 32.8223 127.117 32.5183 127.33 32.1343C127.544 31.7396 127.65 31.2916 127.65 30.7903C127.65 30.2996 127.538 29.8623 127.314 29.4783C127.101 29.0943 126.808 28.7956 126.434 28.5823C126.072 28.3583 125.65 28.2463 125.17 28.2463C124.69 28.2463 124.264 28.3583 123.89 28.5823C123.517 28.7956 123.224 29.0943 123.01 29.4783C122.797 29.8623 122.69 30.2996 122.69 30.7903C122.69 31.2916 122.797 31.7396 123.01 32.1343C123.224 32.5183 123.517 32.8223 123.89 33.0463C124.264 33.2703 124.69 33.3823 125.17 33.3823ZM134.113 37.9583C133.334 37.9583 132.641 37.8143 132.033 37.5263C131.435 37.2383 130.955 36.8329 130.593 36.3103L131.521 35.3663C131.83 35.7609 132.198 36.0596 132.625 36.2623C133.051 36.4756 133.558 36.5823 134.145 36.5823C134.923 36.5823 135.537 36.3743 135.985 35.9583C136.443 35.5529 136.673 35.0036 136.673 34.3103V32.4223L136.929 30.7103L136.673 29.0143V27.0143H138.113V34.3103C138.113 35.0356 137.942 35.6703 137.601 36.2143C137.27 36.7583 136.801 37.1849 136.193 37.4943C135.595 37.8036 134.902 37.9583 134.113 37.9583ZM134.113 34.4863C133.419 34.4863 132.795 34.3209 132.241 33.9903C131.697 33.6596 131.265 33.2063 130.945 32.6303C130.625 32.0436 130.465 31.3876 130.465 30.6623C130.465 29.9369 130.625 29.2916 130.945 28.7263C131.265 28.1503 131.697 27.6969 132.241 27.3663C132.795 27.0249 133.419 26.8543 134.113 26.8543C134.71 26.8543 135.238 26.9716 135.697 27.2063C136.155 27.4409 136.518 27.7716 136.785 28.1983C137.062 28.6143 137.211 29.1049 137.233 29.6703V31.6863C137.201 32.2409 137.046 32.7316 136.769 33.1583C136.502 33.5743 136.139 33.8996 135.681 34.1343C135.222 34.3689 134.699 34.4863 134.113 34.4863ZM134.401 33.1263C134.87 33.1263 135.281 33.0249 135.633 32.8223C135.995 32.6196 136.273 32.3369 136.465 31.9743C136.657 31.6009 136.753 31.1689 136.753 30.6783C136.753 30.1876 136.651 29.7609 136.449 29.3983C136.257 29.0249 135.985 28.7369 135.633 28.5343C135.281 28.3209 134.865 28.2143 134.385 28.2143C133.905 28.2143 133.483 28.3209 133.121 28.5343C132.758 28.7369 132.47 29.0249 132.257 29.3983C132.054 29.7609 131.953 30.1823 131.953 30.6623C131.953 31.1423 132.054 31.5689 132.257 31.9423C132.47 32.3156 132.758 32.6089 133.121 32.8223C133.494 33.0249 133.921 33.1263 134.401 33.1263ZM140.426 34.6143V23.1903H141.866V34.6143H140.426ZM147.693 34.7743C146.936 34.7743 146.253 34.6036 145.645 34.2623C145.037 33.9103 144.557 33.4356 144.205 32.8383C143.853 32.2409 143.677 31.5636 143.677 30.8063C143.677 30.0596 143.848 29.3876 144.189 28.7903C144.541 28.1929 145.011 27.7236 145.597 27.3823C146.195 27.0303 146.861 26.8543 147.597 26.8543C148.301 26.8543 148.92 27.0143 149.453 27.3343C149.997 27.6543 150.419 28.0969 150.717 28.6623C151.027 29.2276 151.181 29.8676 151.181 30.5823C151.181 30.6889 151.176 30.8063 151.165 30.9343C151.155 31.0516 151.133 31.1903 151.101 31.3503H144.685V30.1503H150.333L149.805 30.6143C149.805 30.1023 149.715 29.6703 149.533 29.3183C149.352 28.9556 149.096 28.6783 148.765 28.4863C148.435 28.2836 148.035 28.1823 147.565 28.1823C147.075 28.1823 146.643 28.2889 146.269 28.5023C145.896 28.7156 145.608 29.0143 145.405 29.3983C145.203 29.7823 145.101 30.2356 145.101 30.7583C145.101 31.2916 145.208 31.7609 145.421 32.1663C145.635 32.5609 145.939 32.8703 146.333 33.0943C146.728 33.3076 147.181 33.4143 147.693 33.4143C148.12 33.4143 148.509 33.3396 148.861 33.1903C149.224 33.0409 149.533 32.8169 149.789 32.5183L150.717 33.4623C150.355 33.8889 149.907 34.2143 149.373 34.4383C148.851 34.6623 148.291 34.7743 147.693 34.7743Z" fill="#111827"/>
</svg>
